<!--?xml version="1.0" encoding="UTF-8"?-->
<svg xmlns="http://www.w3.org/2000/svg" width="200" height="200" viewBox="0 0 200 200" preserveAspectRatio="xMinYMin slice">
  <!-- Dark background -->
  <rect width="100%" height="100%" fill="#1a1a2e"></rect>

  <!-- Light doodle strokes -->
  <g fill="none" stroke-linecap="round" stroke-linejoin="round" stroke-width="2" opacity="0.8">
    <g stroke="#6c7b95">
      <!-- stars / dots -->
      <circle cx="22" cy="28" r="2.5"></circle>
      <circle cx="172" cy="38" r="2"></circle>
      <circle cx="58" cy="152" r="1.8"></circle>
      <circle cx="140" cy="118" r="3"></circle>
      
      <!-- small swirls -->
      <path d="M30 60c6-6 18-6 24 0 6-6 18-4 18 6 8-4 16 4 12 12H30z"></path>
      <path d="M120 170c9-12 30-10 36 2 9-8 20-5 20 10H120z"></path>
    </g>

    <g stroke="#7da1b0">
      <!-- clouds / soft blobs -->
      <path d="M40 90c5-10 25-10 30 0 10-10 25-5 25 8 10-5 20 5 15 15H40z"></path>
      <path d="M10 150c6-10 26-14 36-6 8-8 22-6 26 6 6-6 18-4 20 8H10z"></path>
    </g>

    <g stroke="#a8c0d0">
      <!-- subtle squiggles -->
      <path d="M160 80c6 6 12 12 18 0"></path>
      <path d="M20 160c6-6 12-6 18 6"></path>
      <path d="M80 30c8 8 20 8 28 0"></path>
    </g>

    <g stroke="#d0e1f9">
      <!-- tiny crosshatch / accents -->
      <path d="M95 45c0 8 14 8 14 0s-14-8-14 0z"></path>
      <path d="M70 180c0 10 15 10 15 0s-15-10-15 0z"></path>
    </g>
  </g>

  <!-- faint paper texture dots -->
  <g fill="#ffffff" opacity="0.05">
    <circle cx="20" cy="20" r="1"></circle>
    <circle cx="55" cy="40" r="1"></circle>
    <circle cx="100" cy="10" r="1"></circle>
    <circle cx="140" cy="160" r="1"></circle>
    <circle cx="180" cy="90" r="1"></circle>
  </g>

  <!-- subtle vignette for depth -->
  <defs>
    <radialGradient id="v" cx="50%" cy="40%" r="70%">
      <stop offset="0%" stop-color="#1a1a2e" stop-opacity="0.95"></stop>
      <stop offset="100%" stop-color="#0d0d1a" stop-opacity="0.9"></stop>
    </radialGradient>
  </defs>
  <rect width="100%" height="100%" fill="url(#v)" opacity="0.95"></rect>
</svg>
